# xmcd CD database file
#
# Track frame offsets:
#	150
#	16632
#	50942
#
# Disc length: 979 seconds
#
# Revision: 0
# Processed by: cddbd v1.5PL3 Copyright (c) Steve Scherf et al.
# Submitted via: CDex 1.40Release
#
DISCID=1d03d103
DTITLE=李　博士 - 李　博士の2002年宇宙の旅
DYEAR=1996
DGENRE=Pop
TTITLE0=I LOVE FIFA WORLD CUP
TTITLE1=2002年宇宙の旅
TTITLE2=李　博士の部屋
EXTD=YEAR: 1996 ID3G: 13
EXTT0=
EXTT1=
EXTT2=
PLAYORDER=
